<svg viewBox="0 0 100 100" xmlns="http://www.w3.org/2000/svg">
  <defs>
    <linearGradient id="grn" x1="0" y1="0" x2="0" y2="1">
      <stop offset="0" stop-color="#5ef29a"/>
      <stop offset="48%" stop-color="#33c877"/>
      <stop offset="100%" stop-color="#1c9a56"/>
    </linearGradient>
    <linearGradient id="grnDeep" x1="0" y1="0" x2="0" y2="1">
      <stop offset="0" stop-color="#279e5d"/>
      <stop offset="100%" stop-color="#127a43"/>
    </linearGradient>
    <radialGradient id="gloss" cx="34%" cy="26%" r="58%">
      <stop offset="0" stop-color="#ffffff" stop-opacity=".6"/>
      <stop offset="100%" stop-color="#ffffff" stop-opacity="0"/>
    </radialGradient>
  </defs>
  <!-- green underside + speech tail -->
  <path d="M50 33C30 33 19 43 19 55c0 9 6 16 17 19l-7 14 18-10c1 .1 2 .1 3 .1 20 0 31-10 31-23S70 33 50 33Z" fill="url(#grnDeep)"/>
  <!-- green glossy face -->
  <ellipse cx="50" cy="46" rx="31" ry="24" fill="url(#grn)"/>
  <ellipse cx="50" cy="46" rx="31" ry="24" fill="url(#gloss)"/>
  <!-- eyes -->
  <circle cx="40" cy="44" r="4.4" fill="#06331c"/>
  <circle cx="60" cy="44" r="4.4" fill="#06331c"/>
  <circle cx="41.4" cy="42.4" r="1.4" fill="#fff" opacity=".9"/>
  <circle cx="61.4" cy="42.4" r="1.4" fill="#fff" opacity=".9"/>
  <!-- smile -->
  <path d="M38.5 52c3.6 5.8 8 8.4 11.5 8.4s7.9-2.6 11.5-8.4" stroke="#06331c" stroke-width="4.8" fill="none" stroke-linecap="round"/>
</svg>
